<?xml version="1.0" standalone="no"?>
<!DOCTYPE svg PUBLIC "-//W3C//DTD SVG 20010904//EN"
 "http://www.w3.org/TR/2001/REC-SVG-20010904/DTD/svg10.dtd">
<svg version="1.0" xmlns="http://www.w3.org/2000/svg"
 width="171.000000pt" height="33.000000pt" viewBox="0 0 171.000000 33.000000"
 preserveAspectRatio="xMidYMid meet">

<g transform="translate(0.000000,33.000000) scale(0.100000,-0.100000)"
fill="#000000" stroke="none">
<path d="M135 231 c-3 -6 -17 -39 -30 -75 -18 -48 -21 -66 -12 -66 7 0 24 29
36 65 13 36 27 65 32 65 5 0 9 -24 9 -52 0 -61 10 -81 35 -76 20 3 26 12 57
83 l22 50 6 -55 c3 -30 9 -61 13 -67 6 -9 40 -13 113 -13 86 0 104 3 104 15 0
12 -18 15 -100 15 l-99 0 -3 58 c-3 56 -4 57 -32 57 -26 0 -31 -6 -51 -60 -13
-33 -27 -60 -31 -60 -5 0 -10 28 -12 63 -3 58 -5 62 -27 62 -13 0 -26 -4 -30
-9z"/>
<path d="M362 228 c-15 -15 -16 -45 -2 -53 8 -5 7 -11 -1 -21 -18 -21 -2 -30
19 -11 10 10 35 17 55 17 54 0 45 18 -10 22 -35 2 -48 7 -48 18 0 11 14 16 53
18 28 2 52 7 52 13 0 13 -104 11 -118 -3z"/>
<path d="M500 230 c0 -5 9 -10 20 -10 18 0 20 -7 20 -65 0 -53 3 -65 16 -65
13 0 15 9 9 65 l-7 65 26 0 c14 0 26 5 26 10 0 6 -25 10 -55 10 -30 0 -55 -4
-55 -10z"/>
<path d="M630 231 c0 -5 7 -11 15 -15 17 -6 55 -64 55 -83 0 -9 -19 -13 -60
-13 -47 0 -60 -3 -60 -15 0 -23 112 -21 132 3 16 17 78 119 78 127 0 18 -24
-2 -46 -36 l-26 -41 -20 33 c-11 19 -26 37 -32 41 -15 11 -36 10 -36 -1z"/>
</g>
</svg>
