<?xml version="1.0" standalone="no"?>
<!DOCTYPE svg PUBLIC "-//W3C//DTD SVG 20010904//EN"
 "http://www.w3.org/TR/2001/REC-SVG-20010904/DTD/svg10.dtd">
<svg version="1.0" xmlns="http://www.w3.org/2000/svg"
 width="673.000000pt" height="113.000000pt" viewBox="0 0 673.000000 113.000000"
 preserveAspectRatio="xMidYMid meet">

<g transform="translate(0.000000,113.000000) scale(0.100000,-0.100000)"
fill="#000000" stroke="none">
<path d="M500 968 c-24 -13 -56 -39 -71 -58 -18 -23 -72 -161 -153 -389 -69
-195 -126 -356 -126 -358 0 -2 37 -3 81 -1 l82 3 113 323 c62 178 118 330 124
338 14 16 48 18 70 4 12 -8 16 -53 20 -272 6 -291 7 -297 74 -356 38 -33 90
-52 147 -52 43 0 135 44 152 73 6 12 57 154 112 317 98 289 101 295 128 298
17 2 37 -4 48 -14 18 -16 19 -35 19 -341 l0 -323 75 0 75 0 0 338 c0 330 0
339 -22 382 -69 137 -290 144 -357 12 -10 -20 -56 -152 -101 -292 -45 -140
-88 -265 -96 -277 -17 -27 -55 -30 -78 -7 -14 13 -16 50 -16 248 0 273 -8 313
-69 369 -66 60 -155 73 -231 35z"/>
<path d="M1760 976 c-69 -15 -89 -26 -128 -70 -72 -82 -68 -244 7 -310 l21
-19 -24 -26 c-77 -80 -74 -236 6 -318 62 -64 109 -73 373 -73 l235 0 0 69 0
70 -234 3 c-232 3 -235 3 -260 27 -48 45 -40 132 13 161 12 6 111 10 250 10
l231 0 0 75 0 75 -233 0 c-255 0 -263 2 -287 59 -16 39 -6 76 27 107 26 24 26
24 259 24 l234 0 0 75 0 75 -217 -1 c-131 0 -240 -6 -273 -13z"/>
<path d="M2347 983 c-4 -3 -7 -37 -7 -75 l0 -68 105 0 105 0 0 -340 0 -340 70
0 70 0 0 340 0 340 95 0 95 0 0 75 0 75 -263 0 c-145 0 -267 -3 -270 -7z"/>
<path d="M2940 983 c0 -4 68 -109 150 -233 l150 -227 0 -181 0 -182 70 0 70 0
0 186 0 186 150 223 c83 123 150 227 150 230 0 3 -37 5 -82 5 l-83 0 -100
-165 c-55 -90 -102 -164 -105 -164 -3 0 -50 73 -105 162 l-100 162 -82 3 c-46
2 -83 -1 -83 -5z"/>
<path d="M4384 689 c-66 -19 -103 -98 -85 -181 15 -66 48 -91 126 -96 63 -4
66 -3 100 31 19 19 35 44 35 56 0 32 -61 29 -94 -4 -30 -30 -40 -31 -66 -5
-27 27 -28 100 0 125 24 22 70 13 77 -15 8 -29 83 -29 83 -1 0 30 -48 79 -88
91 -42 11 -46 11 -88 -1z"/>
<path d="M5292 690 c-88 -21 -123 -127 -75 -222 18 -37 62 -58 118 -58 88 0
138 51 139 141 0 101 -82 163 -182 139z m78 -80 c40 -40 15 -140 -35 -140 -28
0 -55 38 -55 78 0 71 48 104 90 62z"/>
<path d="M5822 690 c-88 -21 -123 -127 -75 -222 18 -37 62 -58 118 -58 83 0
127 40 140 126 8 48 -28 123 -65 140 -38 18 -81 23 -118 14z m78 -80 c40 -40
15 -140 -35 -140 -28 0 -55 38 -55 78 0 71 48 104 90 62z"/>
<path d="M6123 689 c-95 -28 -122 -186 -42 -253 25 -21 41 -26 85 -26 92 0
132 34 137 115 l2 40 -62 3 -63 3 0 -31 c0 -23 4 -30 20 -30 25 0 26 -16 1
-30 -24 -12 -66 1 -75 25 -13 34 -6 92 12 108 23 21 42 21 68 2 25 -19 94 -20
94 -1 0 23 -46 64 -86 75 -45 12 -48 12 -91 0z"/>
<path d="M3800 660 c0 -28 3 -30 35 -30 l35 0 0 -110 0 -110 45 0 45 0 0 110
0 110 35 0 c32 0 35 2 35 30 l0 30 -115 0 -115 0 0 -30z"/>
<path d="M4060 550 l0 -140 101 0 100 0 -3 33 c-3 32 -4 32 -60 35 -50 3 -58
6 -58 22 0 17 7 20 55 20 54 0 55 0 55 30 0 30 0 30 -56 30 -52 0 -55 1 -52
23 3 19 10 22 61 25 56 3 57 4 57 32 l0 30 -100 0 -100 0 0 -140z"/>
<path d="M4600 550 l0 -140 40 0 40 0 0 55 0 55 50 0 50 0 0 -55 0 -55 40 0
40 0 0 140 0 140 -40 0 -40 0 0 -53 0 -54 -47 1 -48 1 -3 53 -3 52 -40 0 -39
0 0 -140z"/>
<path d="M4910 550 l0 -140 40 0 39 0 3 73 3 72 49 -72 c44 -66 52 -73 82 -73
l34 0 0 140 0 140 -40 0 -40 0 0 -72 0 -72 -51 72 c-46 65 -53 72 -85 72 l-34
0 0 -140z"/>
<path d="M5510 550 l0 -140 95 0 95 0 0 35 0 35 -55 0 -55 0 0 105 0 105 -40
0 -40 0 0 -140z"/>
<path d="M6320 685 c0 -3 20 -46 45 -95 33 -67 45 -101 45 -135 l0 -45 40 0
40 0 0 40 c0 28 15 70 50 140 l50 100 -44 0 c-43 0 -44 0 -68 -56 l-24 -57
-25 56 c-24 56 -24 57 -66 57 -24 0 -43 -2 -43 -5z"/>
</g>
</svg>
