<?xml version="1.0" standalone="no"?>
<!DOCTYPE svg PUBLIC "-//W3C//DTD SVG 20010904//EN"
 "http://www.w3.org/TR/2001/REC-SVG-20010904/DTD/svg10.dtd">
<svg version="1.0" xmlns="http://www.w3.org/2000/svg"
 width="452.000000pt" height="107.000000pt" viewBox="0 0 452.000000 107.000000"
 preserveAspectRatio="xMidYMid meet">

<g transform="translate(0.000000,107.000000) scale(0.100000,-0.100000)"
fill="#000000" stroke="none">
<path d="M363 810 c-18 -10 -39 -30 -47 -42 -13 -20 -77 -193 -187 -506 l-18
-53 62 3 62 3 85 244 c52 147 93 249 103 255 12 8 22 8 35 0 15 -10 18 -35 22
-212 6 -228 9 -238 91 -280 48 -25 96 -24 150 3 38 20 50 45 110 232 80 247
87 263 113 263 44 0 46 -11 46 -267 l0 -243 60 0 60 0 0 228 c-1 242 -8 303
-43 341 -64 69 -179 67 -236 -5 -11 -14 -46 -103 -76 -198 -76 -234 -84 -253
-101 -260 -9 -3 -24 -1 -35 4 -18 10 -19 23 -19 197 0 166 -2 191 -20 228 -37
77 -145 109 -217 65z"/>
<path d="M1287 816 c-48 -18 -76 -42 -93 -83 -28 -65 -10 -173 32 -196 12 -7
10 -14 -11 -38 -32 -38 -39 -66 -33 -133 5 -61 33 -107 81 -134 27 -14 65 -18
225 -20 l192 -4 0 56 0 56 -178 0 c-158 0 -181 2 -194 18 -23 27 -28 49 -17
80 16 46 44 52 224 52 l165 0 0 55 0 55 -178 0 c-167 0 -180 1 -197 20 -26 29
-24 79 4 102 21 16 43 18 197 18 l174 0 0 55 0 55 -177 0 c-124 -1 -190 -5
-216 -14z"/>
<path d="M1760 775 l0 -55 75 0 75 0 0 -255 0 -255 55 0 55 0 0 255 0 255 70
0 70 0 0 55 0 55 -200 0 -200 0 0 -55z"/>
<path d="M2206 818 c5 -7 57 -86 116 -176 l108 -163 0 -135 0 -134 50 0 50 0
0 138 0 138 110 163 c60 89 112 167 115 172 4 5 -21 9 -59 9 l-64 0 -74 -120
c-40 -66 -75 -120 -78 -120 -3 0 -39 54 -80 120 l-73 120 -64 0 c-49 0 -62 -3
-57 -12z"/>
<path d="M2860 560 c0 -13 7 -20 20 -20 18 0 20 -7 20 -55 0 -48 2 -55 20 -55
18 0 20 7 20 55 0 48 2 55 20 55 13 0 20 7 20 20 0 18 -7 20 -60 20 -53 0 -60
-2 -60 -20z"/>
<path d="M3000 505 l0 -75 50 0 c37 0 50 4 50 14 0 8 -12 16 -27 18 -39 4 -42
28 -4 28 21 0 31 5 31 15 0 10 -10 15 -30 15 -16 0 -30 5 -30 10 0 6 14 10 30
10 23 0 30 4 30 20 0 17 -7 20 -50 20 l-50 0 0 -75z"/>
<path d="M3140 560 c-12 -12 -20 -33 -20 -55 0 -45 29 -75 73 -75 33 0 67 24
67 48 0 18 -31 14 -53 -5 -18 -17 -19 -17 -33 2 -18 25 -18 40 2 60 15 14 18
14 33 0 20 -17 51 -20 51 -5 0 21 -41 50 -70 50 -17 0 -39 -9 -50 -20z"/>
<path d="M3280 505 c0 -68 2 -75 20 -75 16 0 20 7 20 31 0 27 3 30 28 27 21
-2 28 -9 30 -30 2 -20 9 -28 23 -28 17 0 19 8 19 75 0 67 -2 75 -19 75 -14 0
-21 -8 -23 -27 -2 -22 -9 -29 -30 -31 -25 -3 -28 0 -28 27 0 24 -4 31 -20 31
-18 0 -20 -7 -20 -75z"/>
<path d="M3447 573 c-4 -3 -7 -37 -7 -75 0 -66 1 -68 25 -68 22 0 25 4 25 37
l0 38 25 -38 c15 -21 34 -37 45 -37 18 0 20 7 20 75 0 68 -2 75 -20 75 -16 0
-20 -7 -20 -37 l-1 -38 -32 38 c-31 36 -47 44 -60 30z"/>
<path d="M3622 557 c-47 -50 -15 -127 52 -127 39 0 76 37 76 75 0 65 -84 99
-128 52z m78 -52 c0 -12 -7 -29 -16 -36 -14 -11 -18 -10 -30 6 -18 25 -18 40
2 60 20 20 44 4 44 -30z"/>
<path d="M3767 573 c-4 -3 -7 -37 -7 -75 l0 -68 55 0 c42 0 55 3 55 15 0 10
-10 15 -30 15 l-30 0 0 60 c0 52 -3 60 -18 60 -10 0 -22 -3 -25 -7z"/>
<path d="M3902 557 c-47 -50 -15 -127 52 -127 39 0 76 37 76 75 0 65 -84 99
-128 52z m78 -52 c0 -12 -7 -29 -16 -36 -14 -11 -18 -10 -30 6 -18 25 -18 40
2 60 20 20 44 4 44 -30z"/>
<path d="M4065 560 c-11 -12 -19 -36 -19 -55 0 -44 28 -75 69 -75 39 0 62 17
71 53 6 26 4 27 -30 27 -25 0 -36 -4 -36 -15 0 -8 5 -15 12 -15 9 0 9 -3 0
-12 -15 -15 -42 7 -42 36 0 34 17 45 50 33 37 -14 49 -3 25 23 -24 27 -76 26
-100 0z"/>
<path d="M4215 530 c14 -27 25 -61 25 -75 0 -18 5 -25 20 -25 12 0 20 7 20 18
0 9 11 41 25 70 30 65 30 62 5 62 -13 0 -24 -11 -33 -32 l-13 -32 -13 32 c-10
23 -20 32 -37 32 l-24 0 25 -50z"/>
</g>
</svg>
