<?xml version="1.0" standalone="no"?>
<!DOCTYPE svg PUBLIC "-//W3C//DTD SVG 20010904//EN"
 "http://www.w3.org/TR/2001/REC-SVG-20010904/DTD/svg10.dtd">
<svg version="1.0" xmlns="http://www.w3.org/2000/svg"
 width="283.000000pt" height="127.000000pt" viewBox="0 0 283.000000 127.000000"
 preserveAspectRatio="xMidYMid meet">

<g transform="translate(0.000000,127.000000) scale(0.100000,-0.100000)"
fill="#000000" stroke="none">
<path d="M333 1040 c-18 -10 -39 -30 -47 -42 -13 -20 -77 -193 -187 -506 l-18
-53 62 3 62 3 85 244 c52 147 93 249 103 255 12 8 22 8 35 0 15 -10 18 -35 22
-212 6 -228 9 -238 91 -280 48 -25 96 -24 150 3 38 20 50 45 110 232 80 247
87 263 113 263 44 0 46 -11 46 -267 l0 -243 60 0 60 0 0 228 c-1 242 -8 303
-43 341 -64 69 -179 67 -236 -5 -11 -14 -46 -103 -76 -198 -76 -234 -84 -253
-101 -260 -9 -3 -24 -1 -35 4 -18 10 -19 23 -19 197 0 166 -2 191 -20 228 -37
77 -145 109 -217 65z"/>
<path d="M1257 1046 c-48 -18 -76 -42 -93 -83 -28 -65 -10 -173 32 -196 12 -7
10 -14 -11 -38 -32 -38 -39 -66 -33 -133 5 -61 33 -107 81 -134 27 -14 65 -18
225 -20 l192 -4 0 56 0 56 -178 0 c-158 0 -181 2 -194 18 -23 27 -28 49 -17
80 16 46 44 52 224 52 l165 0 0 55 0 55 -178 0 c-167 0 -180 1 -197 20 -26 29
-24 79 4 102 21 16 43 18 197 18 l174 0 0 55 0 55 -177 0 c-124 -1 -190 -5
-216 -14z"/>
<path d="M1730 1005 l0 -55 75 0 75 0 0 -255 0 -255 55 0 55 0 0 255 0 255 70
0 70 0 0 55 0 55 -200 0 -200 0 0 -55z"/>
<path d="M2176 1048 c5 -7 57 -86 116 -176 l108 -163 0 -135 0 -134 50 0 50 0
0 138 0 138 110 163 c60 89 112 167 115 172 4 5 -21 9 -59 9 l-64 0 -74 -120
c-40 -66 -75 -120 -78 -120 -3 0 -39 54 -80 120 l-73 120 -64 0 c-49 0 -62 -3
-57 -12z"/>
<path d="M588 243 c20 -4 22 -10 22 -64 0 -33 4 -59 10 -59 6 0 10 26 10 59 0
54 2 60 23 64 12 2 -3 4 -33 4 -30 0 -45 -2 -32 -4z"/>
<path d="M680 185 l0 -65 43 1 42 2 -35 6 c-26 4 -36 12 -38 28 -3 17 3 22 25
26 l28 4 -28 2 c-23 1 -28 5 -25 24 2 16 12 24 38 28 l35 6 -42 2 -43 1 0 -65z"/>
<path d="M797 232 c-22 -25 -21 -75 1 -95 22 -20 63 -22 80 -5 21 21 13 32 -9
12 -19 -17 -23 -17 -47 -3 -35 19 -40 58 -12 84 20 19 23 19 51 3 29 -17 39
-12 17 10 -18 18 -63 14 -81 -6z"/>
<path d="M910 186 c0 -37 4 -66 10 -66 6 0 10 14 10 30 0 28 3 30 34 30 32 0
35 -3 39 -32 2 -18 4 -1 4 37 0 39 -2 55 -4 38 -4 -30 -7 -33 -39 -33 -29 0
-34 3 -34 24 0 14 -4 28 -10 31 -6 4 -10 -18 -10 -59z"/>
<path d="M1030 190 c0 -33 4 -60 10 -60 6 0 10 21 10 47 l0 48 35 -53 c20 -29
40 -50 45 -47 13 8 13 96 0 115 -7 11 -10 -1 -10 -40 l0 -55 -35 53 c-20 28
-40 52 -45 52 -6 0 -10 -27 -10 -60z"/>
<path d="M1176 228 c-34 -48 -8 -108 46 -108 33 0 58 29 58 67 0 58 -73 86
-104 41z m76 -5 c10 -9 18 -25 18 -36 0 -24 -27 -57 -47 -57 -18 0 -53 36 -53
55 0 18 35 55 52 55 6 0 20 -7 30 -17z"/>
<path d="M1312 188 l-2 -68 38 1 c36 1 36 2 7 8 -28 6 -30 9 -36 66 l-6 60 -1
-67z"/>
<path d="M1411 224 c-12 -15 -21 -32 -21 -39 0 -24 41 -65 66 -65 31 0 64 33
64 65 0 32 -33 65 -64 65 -15 0 -33 -11 -45 -26z m73 3 c36 -26 14 -97 -30
-97 -20 0 -44 30 -44 55 0 25 24 55 44 55 7 0 20 -6 30 -13z"/>
<path d="M1560 230 c-24 -24 -26 -57 -4 -88 19 -27 64 -29 87 -4 23 26 22 52
-3 52 -11 0 -20 -4 -20 -10 0 -5 7 -10 15 -10 20 0 8 -28 -16 -35 -41 -13 -74
28 -58 72 11 30 43 37 76 16 l28 -17 -19 22 c-24 27 -60 28 -86 2z"/>
<path d="M1681 245 c0 -5 8 -21 19 -35 11 -14 20 -40 20 -58 0 -20 4 -31 10
-27 6 3 10 18 10 32 0 13 9 38 21 55 12 16 19 32 16 35 -3 3 -15 -9 -25 -26
l-19 -31 -26 32 c-14 18 -26 29 -26 23z"/>
<path d="M1880 185 c0 -37 4 -65 10 -65 6 0 10 28 10 65 0 37 -4 65 -10 65 -6
0 -10 -28 -10 -65z"/>
<path d="M1920 190 c0 -33 4 -60 10 -60 6 0 10 21 10 47 l0 48 35 -53 c20 -29
40 -50 45 -47 13 8 13 96 0 115 -7 11 -10 -1 -10 -40 l0 -55 -35 53 c-20 28
-40 52 -45 52 -6 0 -10 -27 -10 -60z"/>
<path d="M2070 228 c-25 -28 -26 -62 0 -88 26 -26 62 -26 85 0 10 11 13 20 7
20 -7 0 -12 -4 -12 -9 0 -16 -38 -23 -60 -11 -31 17 -28 77 5 92 20 9 28 8 43
-5 26 -24 39 -21 17 3 -24 26 -59 25 -85 -2z"/>
<path d="M1800 131 c0 -6 5 -13 10 -16 6 -3 10 1 10 9 0 9 -4 16 -10 16 -5 0
-10 -4 -10 -9z"/>
<path d="M2190 130 c0 -5 5 -10 10 -10 6 0 10 5 10 10 0 6 -4 10 -10 10 -5 0
-10 -4 -10 -10z"/>
</g>
</svg>
