<?xml version="1.0" standalone="no"?>
<!DOCTYPE svg PUBLIC "-//W3C//DTD SVG 20010904//EN"
 "http://www.w3.org/TR/2001/REC-SVG-20010904/DTD/svg10.dtd">
<svg version="1.0" xmlns="http://www.w3.org/2000/svg"
 width="284.000000pt" height="132.000000pt" viewBox="0 0 284.000000 132.000000"
 preserveAspectRatio="xMidYMid meet">

<g transform="translate(0.000000,132.000000) scale(0.100000,-0.100000)"
fill="#000000" stroke="none">
<path d="M333 1070 c-18 -10 -39 -30 -47 -42 -13 -20 -77 -193 -187 -506 l-18
-53 62 3 62 3 85 244 c52 147 93 249 103 255 12 8 22 8 35 0 15 -10 18 -35 22
-212 6 -228 9 -238 91 -280 48 -25 96 -24 150 3 38 20 50 45 110 232 80 247
87 263 113 263 44 0 46 -11 46 -267 l0 -243 60 0 60 0 0 228 c-1 242 -8 303
-43 341 -64 69 -179 67 -236 -5 -11 -14 -46 -103 -76 -198 -76 -234 -84 -253
-101 -260 -9 -3 -24 -1 -35 4 -18 10 -19 23 -19 197 0 166 -2 191 -20 228 -37
77 -145 109 -217 65z"/>
<path d="M1257 1076 c-48 -18 -76 -42 -93 -83 -28 -65 -10 -173 32 -196 12 -7
10 -14 -11 -38 -32 -38 -39 -66 -33 -133 5 -61 33 -107 81 -134 27 -14 65 -18
225 -20 l192 -4 0 56 0 56 -178 0 c-158 0 -181 2 -194 18 -23 27 -28 49 -17
80 16 46 44 52 224 52 l165 0 0 55 0 55 -178 0 c-167 0 -180 1 -197 20 -26 29
-24 79 4 102 21 16 43 18 197 18 l174 0 0 55 0 55 -177 0 c-124 -1 -190 -5
-216 -14z"/>
<path d="M1730 1035 l0 -55 75 0 75 0 0 -255 0 -255 55 0 55 0 0 255 0 255 70
0 70 0 0 55 0 55 -200 0 -200 0 0 -55z"/>
<path d="M2176 1078 c5 -7 57 -86 116 -176 l108 -163 0 -135 0 -134 50 0 50 0
0 138 0 138 110 163 c60 89 112 167 115 172 4 5 -21 9 -59 9 l-64 0 -74 -120
c-40 -66 -75 -120 -78 -120 -3 0 -39 54 -80 120 l-73 120 -64 0 c-49 0 -62 -3
-57 -12z"/>
<path d="M530 255 c0 -8 9 -15 20 -15 17 0 20 -7 20 -50 0 -38 4 -50 15 -50
11 0 15 12 15 50 0 43 3 50 20 50 11 0 20 7 20 15 0 12 -13 15 -55 15 -42 0
-55 -3 -55 -15z"/>
<path d="M650 205 l0 -65 45 0 c25 0 45 5 45 10 0 6 -11 10 -25 10 -18 0 -25
5 -25 20 0 15 7 20 25 20 14 0 25 5 25 10 0 6 -11 10 -25 10 -14 0 -25 5 -25
10 0 6 11 10 25 10 16 0 25 6 25 15 0 11 -12 15 -45 15 l-45 0 0 -65z"/>
<path d="M777 252 c-21 -23 -22 -76 -1 -96 21 -21 84 -22 84 0 0 11 -6 14 -20
9 -42 -13 -69 47 -34 76 12 10 20 10 35 1 16 -11 19 -9 19 8 0 16 -7 20 -33
20 -20 0 -41 -8 -50 -18z"/>
<path d="M880 205 c0 -58 2 -65 20 -65 16 0 20 7 20 30 0 23 4 30 20 30 16 0
20 -7 20 -30 0 -20 5 -30 15 -30 12 0 15 14 15 65 0 51 -3 65 -15 65 -9 0 -15
-9 -15 -25 0 -18 -5 -25 -20 -25 -15 0 -20 7 -20 25 0 18 -5 25 -20 25 -18 0
-20 -7 -20 -65z"/>
<path d="M1020 205 c0 -51 3 -65 15 -65 11 0 15 11 15 43 l0 42 23 -40 c12
-22 30 -41 40 -43 15 -3 17 5 17 62 0 51 -3 66 -14 66 -9 0 -16 -12 -18 -32
l-3 -33 -18 33 c-11 19 -25 32 -37 32 -18 0 -20 -7 -20 -65z"/>
<path d="M1166 248 c-34 -48 -7 -108 48 -108 41 0 60 21 60 65 0 44 -19 65
-60 65 -23 0 -38 -7 -48 -22z m62 -7 c8 -5 12 -22 10 -42 -2 -26 -8 -34 -23
-34 -15 0 -21 8 -23 28 -6 49 7 67 36 48z"/>
<path d="M1300 205 l0 -65 45 0 c49 0 62 17 18 22 -26 3 -28 7 -31 56 -2 37
-7 52 -18 52 -11 0 -14 -15 -14 -65z"/>
<path d="M1406 248 c-34 -48 -7 -108 48 -108 41 0 60 21 60 65 0 44 -19 65
-60 65 -23 0 -38 -7 -48 -22z m62 -7 c8 -5 12 -22 10 -42 -2 -26 -8 -34 -23
-34 -15 0 -21 8 -23 28 -6 49 7 67 36 48z"/>
<path d="M1551 251 c-46 -46 -10 -115 57 -109 34 3 37 6 40 36 3 30 1 32 -27
32 -35 0 -39 -7 -14 -26 22 -16 12 -28 -16 -19 -15 4 -21 15 -21 34 0 40 23
57 56 42 22 -10 25 -9 22 6 -5 28 -71 30 -97 4z"/>
<path d="M1679 234 c12 -19 21 -48 21 -65 0 -22 5 -29 20 -29 15 0 20 7 20 29
0 17 9 46 21 65 21 36 21 36 1 36 -12 0 -23 -9 -27 -20 -3 -11 -10 -20 -15
-20 -5 0 -12 9 -15 20 -4 11 -15 20 -27 20 -20 0 -20 0 1 -36z"/>
<path d="M1900 261 c0 -6 5 -13 10 -16 6 -3 10 -24 10 -46 0 -21 -4 -39 -10
-39 -5 0 -10 -4 -10 -10 0 -5 16 -10 35 -10 19 0 35 5 35 10 0 6 -4 10 -10 10
-5 0 -10 20 -10 45 0 25 5 45 10 45 6 0 10 5 10 10 0 6 -16 10 -35 10 -19 0
-35 -4 -35 -9z"/>
<path d="M1990 205 c0 -51 3 -65 15 -65 11 0 15 11 15 43 l0 42 23 -40 c12
-22 30 -41 40 -43 15 -3 17 5 17 62 0 51 -3 66 -14 66 -9 0 -16 -12 -18 -32
l-3 -33 -18 33 c-11 19 -25 32 -37 32 -18 0 -20 -7 -20 -65z"/>
<path d="M2136 248 c-9 -12 -16 -32 -16 -43 0 -11 7 -31 16 -43 20 -29 87 -28
92 1 3 16 1 17 -16 8 -32 -17 -52 -3 -52 34 0 37 20 51 52 34 17 -9 19 -8 16
8 -5 29 -72 30 -92 1z"/>
<path d="M1787 143 c-3 -16 -3 -30 0 -33 6 -7 33 31 33 47 0 25 -28 13 -33
-14z"/>
<path d="M2250 155 c0 -8 7 -15 15 -15 8 0 15 7 15 15 0 8 -7 15 -15 15 -8 0
-15 -7 -15 -15z"/>
</g>
</svg>
